<svg xmlns="http://www.w3.org/2000/svg" viewBox="0 0 1000 212" width="1000" height="212" role="img" aria-label="The consultation says metformin 500 mg; the note says metformin 1000 mg. The drug matches but the dose conflicts.">
  <style>
    text { font-family: -apple-system, "Segoe UI", Roboto, Helvetica, Arial, sans-serif; }
    .mono { font-family: "DejaVu Sans Mono", Menlo, Consolas, monospace; font-size: 18px; fill: #0f172a; }
    .lbl  { font-size: 13px; font-weight: 700; fill: #94a3b8; letter-spacing: 1.5px; }
    .say  { font-size: 18px; fill: #334155; }
    .pill { font-size: 12.5px; font-weight: 700; fill: #ffffff; letter-spacing: 0.6px; }
    .ent  { font-size: 17px; font-weight: 700; fill: #0f172a; }
    .why  { font-size: 16px; fill: #64748b; }
  </style>

  <rect x="0" y="0" width="1000" height="212" fill="#f8fafc"/>

  <!-- SOURCE -->
  <rect x="40" y="22" width="430" height="80" rx="12" fill="#ffffff" stroke="#e2e8f0" stroke-width="1.5"/>
  <text x="64" y="50" class="lbl">CONSULTATION (SOURCE)</text>
  <rect x="168" y="73" width="90" height="24" rx="4" fill="#bbf7d0"/>
  <rect x="261" y="73" width="66" height="24" rx="4" fill="#fecaca"/>
  <text x="64" y="90" class="say">patient takes <tspan font-weight="600">metformin</tspan>&#160;<tspan font-weight="600">500 mg</tspan> twice a day</text>

  <!-- NOTE -->
  <rect x="530" y="22" width="430" height="80" rx="12" fill="#ffffff" stroke="#e2e8f0" stroke-width="1.5"/>
  <text x="554" y="50" class="lbl">AI SCRIBE NOTE</text>
  <rect x="551" y="73" width="101" height="24" rx="4" fill="#bbf7d0"/>
  <rect x="661" y="73" width="79" height="24" rx="4" fill="#fecaca"/>
  <text x="554" y="90" class="mono"><tspan>Metformin</tspan>&#160;<tspan>1000 mg</tspan> BD.</text>

  <!-- VERDICT -->
  <rect x="40" y="116" width="920" height="74" rx="12" fill="#ffffff" stroke="#e2e8f0" stroke-width="1.5"/>
  <rect x="64" y="138" width="150" height="30" rx="15" fill="#dc2626"/>
  <text x="139" y="158" class="pill" text-anchor="middle">CONFLICTING</text>
  <text x="240" y="158" class="ent">Metformin</text>
  <text x="370" y="158" class="why">right drug — but the dose differs: 1000 mg ≠ 500 mg</text>
</svg>
